# xmcd CD database file
#
# Track frame offsets:
#	182
#	38900
#	130430
#	158067
#	187967
#
# Disc length: 3389 seconds
#
# Revision: 0
# Processed by: cddbd v1.5.1PL2 Copyright (c) Steve Scherf et al.
# Submitted via: CDex 1.51
#
DISCID=3b0d3b05
DTITLE=Lazro, Daunik - Dourou
DYEAR=1996
DGENRE=Jazz
TTITLE0=Pat
TTITLE1=Africa Lab
TTITLE2=Catty
TTITLE3=Candide
TTITLE4=Malachi
EXTD=YEAR: 1996
EXTT0=
EXTT1=
EXTT2=
EXTT3=
EXTT4=
PLAYORDER=
